<?xml version="1.0" standalone="no"?>
<!--
  - Copyright 2024 - 2025 华南理工大学 学生研究计划(SRP)项目组-基于鸿蒙的物联网采集系统设计
  -
  - Redistribution and use in source and binary forms, with or without
  - modification, are permitted provided that the following conditions are met:
  - Redistributions of source code must retain the above copyright notice,
  - this list of conditions and the following disclaimer.
  - Redistributions in binary form must reproduce the above copyright
  - notice, this list of conditions and the following disclaimer in the
  - documentation and/or other materials provided with the distribution.
  - Neither the name of the developer nor the names of its
  - contributors may be used to endorse or promote products derived from
  - this software without specific prior written permission.
  - 重新分发和使用源代码和二进制形式的代码，无论是否进行修改，都是允许的，只要满足以下条件：
  - 重新分发源代码时，必须保留上述版权通知、本条件列表以及以下免责声明。
  - 以二进制形式重新分发时，必须在分发时提供的文档或其他材料中复制上述版权通知、本条件列表以及以下免责声明。
  - 未经事先书面许可，不得使用开发者或贡献者的名称来认可或推广从本软件派生出来的产品。
  -
  - Disclaimer
  - This software is provided "as is" without any express or implied warranty,
  - including but not limited to the warranties of merchantability,
  - fitness for a particular purpose, and non-infringement.
  - The risk of using this software lies with the user. The developers or contributors shall not be liable for any direct,
  - indirect, incidental, special, exemplary, or consequential damages resulting from the use of this software.
  - To the maximum extent permitted by law, the developers or contributors shall not be responsible for any claims,
  - losses, liabilities, damages, costs, or expenses arising from the use or inability to use this software.
  - 免责声明
  - 本软件按“现状”提供，不附带任何形式的明示或暗示保证，包括但不限于对适销性、特定用途的适用性或非侵权性的保证。
  - 使用本软件的风险由用户自行承担。开发者或贡献者不对因使用本软件而导致的任何直接、间接、偶然、特殊、惩戒性或后果性损害承担任何责任。
  - 在法律允许的最大范围内，开发者或贡献者对于因使用或无法使用本软件而产生的任何索赔、损失、责任、损害、成本或费用均不承担责任。
  -->

<svg xmlns="http://www.w3.org/2000/svg" width="48" height="48"><rect width="48" height="48" opacity="0"></rect><g><path d="M12 38.98Q9.55 38.98 7.49 37.78Q5.42 36.58 4.22 34.51Q3.02 32.45 3.02 30Q3.02 27.36 4.44 25.13Q5.86 22.9 8.26 21.84Q8.64 21.65 8.86 21.34Q9.07 21.02 9.12 20.64Q9.31 18.29 10.37 16.13L8.16 13.92Q6.67 16.56 6.24 19.49Q3.36 21.07 1.68 23.9Q0 26.74 0 30Q0 33.26 1.61 36.02Q3.22 38.78 5.98 40.39Q8.74 42 12 42L36.19 42L33.17 38.98L12 38.98ZM44.45 38.5Q46.13 36.82 47.04 34.63Q47.95 32.45 47.95 30Q47.95 27.02 46.56 24.41Q45.17 21.79 42.74 20.11Q40.32 18.43 37.39 18.1Q36.53 14.59 34.3 11.83Q32.06 9.07 28.82 7.51Q25.58 5.95 21.94 5.95Q17.62 5.95 13.87 8.11L16.13 10.32Q18.82 8.98 21.94 8.98Q25.1 8.98 27.84 10.37Q30.58 11.76 32.4 14.21Q34.22 16.66 34.7 19.78Q34.75 20.3 35.18 20.66Q35.62 21.02 36.14 21.02Q38.54 21.07 40.58 22.27Q42.62 23.47 43.82 25.51Q45.02 27.55 45.02 30Q45.02 31.82 44.33 33.48Q43.63 35.14 42.34 36.38L44.45 38.5Z" fill="rgba(232,64,38,1)"></path></g><g><path d="M43.54 43.49Q43.97 43.06 43.97 42.43Q43.97 41.81 43.54 41.38L6.48 4.37Q6.05 3.94 5.42 3.94Q4.8 3.94 4.37 4.37Q3.98 4.75 3.96 5.33Q3.94 5.9 4.27 6.34L4.37 6.48L41.42 43.49Q41.86 43.92 42.43 43.92Q43.01 43.92 43.54 43.49Z" fill="rgba(25,25,25,1)"></path></g></svg>